<?xml version="1.0" encoding="UTF-8"?>
<svg version="1.1" xmlns="http://www.w3.org/2000/svg" width="221" height="232">
<path d="M0 0 C24.8596012 0.37842484 45.94758722 10.15014959 63.75 27.1875 C64.49894531 27.86167969 65.24789062 28.53585938 66.01953125 29.23046875 C84.28444873 46.27985757 93.5850864 71.55152809 94.75 96.1875 C94.97967088 108.3368314 93.29012277 119.59509799 89.75 131.1875 C89.40066406 132.39148438 89.05132812 133.59546875 88.69140625 134.8359375 C86.13818209 142.84016271 82.60931936 148.74102672 77.4453125 155.25 C75.48860663 158.05218105 75.48860663 158.05218105 75.8203125 161.1640625 C76.82743341 164.43932126 78.06566739 167.44985037 79.5 170.5625 C82.04865268 176.26717313 84.05271384 182.00083767 85.84350586 187.98242188 C87.65069392 193.99035703 89.72249449 199.88679044 91.87109375 205.78051758 C93.75 210.98397538 93.75 210.98397538 93.75 213.1875 C88.30478293 212.64571458 82.98463533 211.9041364 77.61108398 210.88012695 C51.72810794 205.98999113 24.52006527 202.62421326 -1.84765625 203.3125 C-22.45788153 203.80879506 -41.38342891 200.87060436 -59.25 190.1875 C-60.76787109 189.30191406 -60.76787109 189.30191406 -62.31640625 188.3984375 C-74.03568298 181.25929535 -82.76341191 172.81919725 -91.25 162.1875 C-91.84941406 161.46433594 -92.44882813 160.74117187 -93.06640625 159.99609375 C-108.65036041 140.50597876 -113.7032839 112.53000534 -112.25 88.1875 C-110.59083085 86.52833085 -108.58932518 87.05811396 -106.37236023 87.04405212 C-105.67480118 87.04458084 -104.97724213 87.04510956 -104.25854492 87.0456543 C-103.52664948 87.04217987 -102.79475403 87.03870544 -102.04067993 87.03512573 C-100.44411675 87.02775273 -98.84754321 87.02241562 -97.25096703 87.01883507 C-94.71453442 87.01167376 -92.17829576 86.99600454 -89.641922 86.97749329 C-82.42740739 86.92504591 -75.21299162 86.87716179 -67.99829102 86.86157227 C-63.58783932 86.85141682 -59.17786495 86.82189025 -54.76760292 86.78025246 C-53.09453274 86.76803072 -51.42139479 86.76280487 -49.74828148 86.76505089 C-36.75356592 86.7781873 -25.01198891 86.02443662 -15.16015625 76.4765625 C-9.67154549 69.89920891 -7.1628722 62.79684792 -7.06054688 54.33325195 C-7.04382935 53.1555574 -7.02711182 51.97786285 -7.0098877 50.76448059 C-6.99631226 49.49770981 -6.98273682 48.23093903 -6.96875 46.92578125 C-6.94063009 44.93772063 -6.91250488 42.94966006 -6.88405609 40.96160412 C-6.82552717 36.76552578 -6.77535751 32.56933929 -6.72393799 28.37316895 C-6.68122312 24.91077564 -6.63666086 21.44843151 -6.58703613 17.98612976 C-6.55021596 15.38870649 -6.51781618 12.79121631 -6.4901123 10.19367981 C-6.47339478 9.02544174 -6.45667725 7.85720367 -6.43945312 6.65356445 C-6.42066101 5.10279961 -6.42066101 5.10279961 -6.40148926 3.52070618 C-6.11963154 -0.82040809 -3.83497791 0.02509802 0 0 Z " fill="#FEAE4C" transform="translate(124.25,1.8125)"/>
<path d="M0 0 C2.23416984 2.84348889 2.40740593 5.47258662 2 9 C0.13671875 11.5 0.13671875 11.5 -2.3125 14 C-6.75741155 18.58090723 -9.76958935 22.69345174 -11.6875 28.8125 C-11.93886719 29.60269531 -12.19023438 30.39289062 -12.44921875 31.20703125 C-12.63097656 31.79871094 -12.81273438 32.39039063 -13 33 C-11.989375 33 -10.97875 33 -9.9375 33 C-5.31772082 33.63850607 -3.23116318 36.43021068 -0.4453125 39.953125 C2.93303094 44.73758977 3.75803437 49.17741714 3 55 C2.18766297 57.48866258 1.17631702 59.64736596 0 62 C-0.66 62 -1.32 62 -2 62 C-2.2784375 62.86625 -2.2784375 62.86625 -2.5625 63.75 C-5.13189374 67.77165977 -8.86058439 69.43737311 -13.33203125 70.61328125 C-19.98084745 71.64986834 -25.20618564 70.38747078 -31 67 C-37.09633948 61.56630611 -39.52809284 54.22531692 -40.421875 46.22265625 C-41.08570782 33.51189017 -37.79412441 21.91070821 -29.296875 12.18359375 C-22.69281525 5.90524443 -9.55753284 -3.82301314 0 0 Z " fill="#0B2B44" transform="translate(98,3)"/>
<path d="M0 0 C1.18529297 0.02707031 1.18529297 0.02707031 2.39453125 0.0546875 C2.98621094 0.07789063 3.57789063 0.10109375 4.1875 0.125 C5.66821117 2.47671774 6.2055152 3.79815286 6.05078125 6.60546875 C5.0108894 9.64044723 3.61986842 11.15931257 1.375 13.4375 C-3.87673356 19.09321306 -6.60164266 24.75547555 -8.8125 32.125 C-7.966875 32.125 -7.12125 32.125 -6.25 32.125 C-0.68371668 33.74428242 2.37074139 38.20735785 5.3671875 43.01953125 C7.11372579 47.50231287 6.6878701 52.41265371 6.1875 57.125 C3.33156128 63.29382764 -1.93161909 67.8748064 -8.125 70.5625 C-14.74606411 71.57249283 -21.47299193 71.31266724 -27.21484375 67.5390625 C-34.26805222 61.29636943 -36.24114881 53.69034454 -37.02734375 44.65625 C-37.45504239 33.8440283 -33.90998236 24.90236349 -27.8125 16.125 C-27.38324219 15.48691406 -26.95398437 14.84882813 -26.51171875 14.19140625 C-20.82948433 6.66537894 -9.60212922 -0.28663072 0 0 Z " fill="#102F48" transform="translate(45.8125,2.875)"/>
<path d="M0 0 C0.62539673 0.26784302 1.25079346 0.53568604 1.8951416 0.81164551 C10.92125029 4.68263047 19.83270058 8.6855958 28.5 13.3125 C28.5 13.6425 28.5 13.9725 28.5 14.3125 C22.87814047 14.45683529 17.73077341 14.14467591 12.1875 13.0625 C0.76243452 10.96178294 -10.80179076 9.88433129 -22.34692383 8.67089844 C-23.12401703 8.58814667 -23.90111023 8.5053949 -24.70175171 8.4201355 C-26.17792368 8.26329583 -27.65441739 8.10944694 -29.1312561 7.95901489 C-32.08255286 7.64552787 -34.67277418 7.25490861 -37.5 6.3125 C-40.59306067 6.04519846 -43.68568109 5.86798241 -46.78515625 5.69140625 C-49.5 5.3125 -49.5 5.3125 -51.5 3.3125 C-50.44683594 3.10496094 -49.39367187 2.89742187 -48.30859375 2.68359375 C-39.7658489 0.89152104 -32.15567838 -1.29425491 -24.49975586 -5.57641602 C-16.62296299 -9.74543677 -7.5666273 -3.25099677 0 0 Z " fill="#133048" transform="translate(184.5,198.6875)"/>
<path d="M0 0 C7.56876318 2.38632979 14.82368805 5.3350654 22.125 8.4375 C23.26582031 8.91509766 24.40664062 9.39269531 25.58203125 9.88476562 C31.27463124 12.29469907 36.72729125 14.76760029 42 18 C42 18.33 42 18.66 42 19 C35.35590042 19.21432579 29.46794133 18.51233701 23 17 C23 16.34 23 15.68 23 15 C18.71 14.67 14.42 14.34 10 14 C10 11.16032769 10.40267181 8.76264289 11 6 C10.28972656 5.81824219 9.57945312 5.63648438 8.84765625 5.44921875 C7.92855469 5.19785156 7.00945312 4.94648438 6.0625 4.6875 C5.14597656 4.44386719 4.22945312 4.20023438 3.28515625 3.94921875 C2.53105469 3.63597656 1.77695313 3.32273438 1 3 C0.67 2.01 0.34 1.02 0 0 Z " fill="#082031" transform="translate(171,194)"/>
<path d="M0 0 C-3 1 -3 1 -5.34765625 1.41015625 C-8.29644635 2.06592548 -10.71437533 3.13580778 -13.4375 4.4375 C-17.24023883 6.21553735 -20.96696668 7.8009901 -25 9 C-22.69 9.33 -20.38 9.66 -18 10 C-18 10.33 -18 10.66 -18 11 C-20.95857409 11.05379226 -23.91617721 11.09357093 -26.875 11.125 C-28.13763672 11.15013672 -28.13763672 11.15013672 -29.42578125 11.17578125 C-30.23144531 11.18222656 -31.03710938 11.18867188 -31.8671875 11.1953125 C-32.61081543 11.20578613 -33.35444336 11.21625977 -34.12060547 11.22705078 C-36 11 -36 11 -38 9 C-36.94683594 8.79246094 -35.89367187 8.58492187 -34.80859375 8.37109375 C-26.2658489 6.57902104 -18.65567838 4.39324509 -10.99975586 0.11108398 C-6.65397835 -2.18904462 -4.43045816 -2.05723854 0 0 Z " fill="#161F1E" transform="translate(171,193)"/>
<path d="M0 0 C0 0.99 0 1.98 0 3 C-4.28162929 7.13811099 -9.55564587 8.86694115 -15.39453125 9.2109375 C-19.94358899 8.84264797 -24.05129642 7.25754164 -28 5 C-28.33 4.34 -28.66 3.68 -29 3 C-27.68 2.67 -26.36 2.34 -25 2 C-25 2.66 -25 3.32 -25 4 C-21.77113991 4.11667875 -18.54282555 4.18740546 -15.3125 4.25 C-14.40048828 4.28351563 -13.48847656 4.31703125 -12.54882812 4.3515625 C-6.89113961 4.43436019 -6.89113961 4.43436019 -1.85546875 1.984375 C-0.93701172 1.00210938 -0.93701172 1.00210938 0 0 Z " fill="#8C949D" transform="translate(95,65)"/>
<path d="M0 0 C1.91385532 2.87078299 2.96432952 5.33411656 4.125 8.5625 C4.47820312 9.53316406 4.83140625 10.50382813 5.1953125 11.50390625 C6 14 6 14 6 16 C3.03 15.67 0.06 15.34 -3 15 C-2.34 14.34 -1.68 13.68 -1 13 C-1.515625 12.608125 -2.03125 12.21625 -2.5625 11.8125 C-3.036875 11.214375 -3.51125 10.61625 -4 10 C-3.6875 7.3125 -3.6875 7.3125 -3 5 C-2.01 5.33 -1.02 5.66 0 6 C0 4.02 0 2.04 0 0 Z " fill="#F7C07C" transform="translate(212,199)"/>
<path d="M0 0 C2.64 0 5.28 0 8 0 C9.35439668 2.70879335 9.06501451 5.00933268 9 8 C5.71303767 8.79953138 4.28976808 9.09658936 1 8 C-0.25 5.0625 -0.25 5.0625 -1 2 C-0.67 1.34 -0.34 0.68 0 0 Z " fill="#06213A" transform="translate(41,3)"/>
<path d="M0 0 C2.42031245 0.03311373 4.83153287 0.10032789 7.25 0.1875 C7.93191406 0.19330078 8.61382812 0.19910156 9.31640625 0.20507812 C13.11899192 0.37121051 14.65507994 0.62673034 17.28125 3.46875 C18.13203125 4.72171875 18.13203125 4.72171875 19 6 C22.12133744 7.34772903 22.12133744 7.34772903 25 8 C25 8.66 25 9.32 25 10 C20.25000014 8.51773054 15.7656158 6.92163123 11.3125 4.6875 C8.06833503 3.19541019 7.33018685 2.93147065 3.6875 3.6875 C2.800625 4.120625 1.91375 4.55375 1 5 C-0.32911682 5.34976758 -1.66082739 5.69096017 -3 6 C-2.67 5.34 -2.34 4.68 -2 4 C-1.34 4 -0.68 4 0 4 C0 2.68 0 1.36 0 0 Z " fill="#E4B76A" transform="translate(160,189)"/>
<path d="M0 0 C1 3 1 3 1 6 C-4.06998019 5.34580901 -8.41990777 3.1453591 -13 1 C-12.37996094 0.84789062 -11.75992188 0.69578125 -11.12109375 0.5390625 C-9.75704583 0.19239839 -8.40194417 -0.19292123 -7.0625 -0.625 C-4.48800126 -1.09309068 -2.51818343 -0.62954586 0 0 Z " fill="#F2B35C" transform="translate(208,203)"/>
<path d="M0 0 C3.3 1.65 6.6 3.3 10 5 C10 5.33 10 5.66 10 6 C3.35590042 6.21432579 -2.53205867 5.51233701 -9 4 C-9 3.67 -9 3.34 -9 3 C-7.02 3 -5.04 3 -3 3 C-2.67 2.34 -2.34 1.68 -2 1 C-1.34 1.33 -0.68 1.66 0 2 C0 1.34 0 0.68 0 0 Z " fill="#656A6B" transform="translate(203,207)"/>
<path d="M0 0 C2.31 0.66 4.62 1.32 7 2 C7 2.33 7 2.66 7 3 C9.97 3 12.94 3 16 3 C16.33 3.99 16.66 4.98 17 6 C7.98529551 5.46839258 -1.01236323 4.89495536 -10 4 C-10 3.67 -10 3.34 -10 3 C-6.7 2.67 -3.4 2.34 0 2 C0 1.34 0 0.68 0 0 Z " fill="#949EA6" transform="translate(160,202)"/>
<path d="M0 0 C3 1 3 1 5.4375 3.5 C7.83695476 5.84093148 8.77134114 6.64126013 12 7 C12 7.66 12 8.32 12 9 C6.35086937 7.34292168 1.73699363 5.52237988 -3 2 C-2.01 1.34 -1.02 0.68 0 0 Z " fill="#EDB260" transform="translate(173,190)"/>
<path d="M0 0 C0.33 1.65 0.66 3.3 1 5 C1.66 5 2.32 5 3 5 C3.33 4.34 3.66 3.68 4 3 C4.33 4.32 4.66 5.64 5 7 C2.03 6.67 -0.94 6.34 -4 6 C-3.34 5.34 -2.68 4.68 -2 4 C-2.99 3.01 -3.98 2.02 -5 1 C-2 0 -2 0 0 0 Z " fill="#E3C79D" transform="translate(213,208)"/>
<path d="M0 0 C4.455 1.98 4.455 1.98 9 4 C9 4.66 9 5.32 9 6 C6.36 6.33 3.72 6.66 1 7 C1.33 6.34 1.66 5.68 2 5 C1.10636395 2.39068734 1.10636395 2.39068734 0 0 Z " fill="#102027" transform="translate(194,203)"/>
<path d="M0 0 C2.28363378 2.28363378 2.7152849 3.74795468 3.625 6.8125 C4.01558594 8.09060547 4.01558594 8.09060547 4.4140625 9.39453125 C5.0044509 12.01979166 5.10588413 14.31920637 5 17 C4.34 15.68 3.68 14.36 3 13 C2.01 13 1.02 13 0 13 C0 8.71 0 4.42 0 0 Z " fill="#F8D4AA" transform="translate(211,65)"/>
<path d="M0 0 C0.66 0.33 1.32 0.66 2 1 C1.154375 1.639375 0.30875 2.27875 -0.5625 2.9375 C-4.73406821 6.38227948 -7.80853331 10.666026 -11 15 C-11 11.06517853 -9.65049674 9.95078791 -7.1875 6.9375 C-6.47980469 6.05964844 -5.77210937 5.18179687 -5.04296875 4.27734375 C-3 2 -3 2 0 0 Z " fill="#061D32" transform="translate(27,10)"/>
<path d="M0 0 C-1 3 -1 3 -3 4 C-6.5 4.1875 -6.5 4.1875 -10 4 C-10.66 3.34 -11.32 2.68 -12 2 C-10.56342755 1.66269158 -9.12569907 1.33030409 -7.6875 1 C-6.88699219 0.814375 -6.08648437 0.62875 -5.26171875 0.4375 C-3 0 -3 0 0 0 Z " fill="#363734" transform="translate(145,200)"/>
<path d="M0 0 C1.125 1.625 1.125 1.625 2 4 C1.07647305 8.19784979 0.64025108 9.57316595 -3 12 C-2.14285714 3.42857143 -2.14285714 3.42857143 0 0 Z " fill="#051C30" transform="translate(13,27)"/>
<path d="M0 0 C1.98 0 3.96 0 6 0 C6.66 1.32 7.32 2.64 8 4 C5.69 3.67 3.38 3.34 1 3 C0.67 2.01 0.34 1.02 0 0 Z " fill="#012242" transform="translate(166,195)"/>
<path d="M0 0 C2.475 0.495 2.475 0.495 5 1 C4.34 1.66 3.68 2.32 3 3 C3.66 4.32 4.32 5.64 5 7 C4.01 8.485 4.01 8.485 3 10 C2.01 6.7 1.02 3.4 0 0 Z " fill="#F3B15D" transform="translate(18,134)"/>
<path d="M0 0 C0.33 0.66 0.66 1.32 1 2 C3.52733235 2.65555119 3.52733235 2.65555119 6 3 C5.67 3.66 5.34 4.32 5 5 C1.31245243 4.50168276 -0.60490662 3.89932357 -3 1 C-2.01 0.67 -1.02 0.34 0 0 Z " fill="#46525E" transform="translate(69,67)"/>
<path d="M0 0 C3.24208567 0.35049575 4.61527704 0.56221181 6.8125 3.0625 C7.204375 3.701875 7.59625 4.34125 8 5 C7.01 6.485 7.01 6.485 6 8 C3 3.25 3 3.25 3 1 C2.01 0.67 1.02 0.34 0 0 Z " fill="#263949" transform="translate(39,36)"/>
<path d="M0 0 C2.97 0.33 5.94 0.66 9 1 C7 3 7 3 3.875 3.125 C2.451875 3.063125 2.451875 3.063125 1 3 C0.67 2.01 0.34 1.02 0 0 Z " fill="#F0B160" transform="translate(148,194)"/>
</svg>
